<svg t="1624697041130" class="icon" viewBox="0 0 1024 1024" version="1.1" xmlns="http://www.w3.org/2000/svg" p-id="1726" width="32" height="32"><path d="M512.258019 689.276529c-96.10802 0-174.307262-80.398547-174.307261-179.218839s78.199242-179.204505 174.307261-179.204506c96.135665 0 174.334906 80.384213 174.334907 179.204506s-78.200266 179.218839-174.334907 179.218839z m0-329.927592c-80.398547 0-145.810485 67.61022-145.810485 150.707729 0 83.111843 65.411938 150.722063 145.810485 150.722063 80.411858 0 145.83813-67.61022 145.83813-150.722063 0-83.096485-65.426272-150.707729-145.83813-150.707729z" p-id="1727" fill="#1296db"></path><path d="M512.27133 592.152815c-44.150959 0-80.078071-36.831203-80.078072-82.095125s35.927112-82.081815 80.078072-82.081815 80.078071 36.817892 80.078071 82.081815-35.927112 82.095125-80.078071 82.095125z m0-135.680164c-28.441487 0-51.581295 24.043899-51.581295 53.585039 0 29.55445 23.139808 53.598349 51.581295 53.598349s51.581295-24.043899 51.581295-53.598349c0-29.541139-23.139808-53.585038-51.581295-53.585039z" p-id="1728" fill="#1296db"></path><path d="M512.27133 797.197114c-170.021278 0-328.883229-107.601133-414.610076-280.808741a14.297535 14.297535 0 0 1 0-12.634745c85.726847-173.207609 244.588798-280.808741 414.610076-280.808742 170.035612 0 328.897563 107.601133 414.62441 280.808742a14.297535 14.297535 0 0 1 0 12.634745c-85.726847 173.207609-244.588798 280.808741-414.62441 280.808741zM126.380213 510.071c81.566801 159.725087 228.83837 258.629338 385.891117 258.629338s304.33865-98.904251 385.90545-258.629338C816.60998 350.345913 669.3251 251.441663 512.27133 251.441663s-304.323292 98.905275-385.891117 258.629337z" p-id="1729" fill="#1296db"></path></svg>